<svg width="165" height="31" viewBox="0 0 165 31" fill="none" xmlns="http://www.w3.org/2000/svg">
<path fill-rule="evenodd" clip-rule="evenodd" d="M40.9948 0.0645936C40.9416 0.0865077 40.9277 2.50479 40.9277 11.904V23.716H43.1549H45.3818L45.3998 18.3851C45.4198 12.4032 45.395 12.7799 45.8259 11.9069C46.1826 11.1844 46.677 10.7438 47.5609 10.361C47.8307 10.2443 50.2373 10.186 50.712 10.2846C51.8696 10.525 52.625 11.5276 52.7945 13.0487C52.8306 13.3738 52.8516 15.4128 52.8516 18.6381V23.716H55.0829H57.3143L57.2943 17.7673C57.2727 11.3236 57.2772 11.4232 56.9721 10.342C56.3014 7.96623 54.643 6.58983 52.0279 6.23791C50.9628 6.09483 49.5367 6.16702 48.8232 6.40001C47.3924 6.86762 46.4913 7.52537 45.7327 8.6562L45.4127 9.13347L45.3856 4.59468L45.3589 0.0562147L43.2103 0.0468691C42.0289 0.0413906 41.0318 0.0494471 40.9948 0.0645936ZM148.148 0.0649159C148.095 0.0865077 148.081 2.50479 148.081 11.904V23.716H150.31H152.539V20.0625V16.4089L153.569 16.4234L154.599 16.4379L154.952 16.9291C155.146 17.1991 155.511 17.7135 155.762 18.0718C156.013 18.4305 156.448 19.0489 156.728 19.4466C157.009 19.844 157.481 20.5127 157.776 20.9326C158.071 21.3522 158.519 21.987 158.772 22.3431C159.024 22.6992 159.345 23.154 159.486 23.3534L159.742 23.716H162.371C163.817 23.716 165 23.7063 165 23.6944C165 23.6828 164.634 23.1449 164.187 22.4994C163.158 21.0157 162.987 20.7689 162.037 19.3922C161.609 18.7718 161.15 18.107 161.016 17.9152C160.614 17.3367 159.31 15.4489 158.975 14.961C158.593 14.4035 158.592 14.4654 158.995 13.9571C159.671 13.1038 160.037 12.6368 162.53 9.45574C163.386 8.36261 164.207 7.31912 164.355 7.13671C164.503 6.95399 164.624 6.779 164.624 6.74709C164.624 6.70681 163.885 6.68941 162.181 6.68941H159.737L159.606 6.83733C159.534 6.91854 158.669 8.01295 157.685 9.26915C156.701 10.5253 155.655 11.8608 155.359 12.2366L154.823 12.9201H153.681H152.539V6.50733C152.539 0.709124 152.531 0.0913417 152.454 0.0620155C152.353 0.0230214 148.245 0.0259217 148.148 0.0649159ZM102.306 4.33977L102.293 6.66266L100.762 6.68941L99.2311 6.71648L99.2169 8.55501L99.2027 10.3939L100.748 10.408L102.293 10.4225L102.319 15.4711L102.346 20.5201L102.469 20.9406C102.868 22.3128 103.735 23.1707 105.127 23.57C105.493 23.6751 105.677 23.6825 108.322 23.7018L111.129 23.7221L111.115 21.7988L111.101 19.8756L109.382 19.8475C106.547 19.8014 106.777 20.2694 106.777 14.5417V10.3968L108.886 10.3829L110.994 10.3687L111.008 8.57305C111.019 7.17216 111.007 6.76772 110.954 6.7342C110.917 6.71068 109.962 6.6907 108.832 6.69038L106.777 6.68941V4.35298V2.01656H104.549H102.321L102.306 4.33977ZM68.777 6.187C64.7435 6.4519 62.0294 8.29268 60.7642 11.6214C59.972 13.7058 59.9527 16.6632 60.7181 18.7209C60.7674 18.8536 60.8222 19.0109 60.8396 19.0699C61.1931 20.2655 62.5469 21.9197 63.9159 22.8291C67.1289 24.9635 72.6161 24.6863 75.4015 22.2494C76.5755 21.2223 77.5564 19.3428 77.5584 18.1166C77.5587 18.0944 76.5842 18.0763 75.3931 18.0763H73.2278L73.1053 18.4234C72.5849 19.8978 71.4299 20.5468 69.3264 20.5468C67.6465 20.5468 66.8534 20.2919 66.0451 19.4927C65.3307 18.7857 64.6143 17.2845 64.6143 16.4947C64.6143 16.4202 65.2965 16.4102 71.2072 16.398L77.8004 16.3844L77.7911 15.1676C77.7595 11.0484 76.1952 8.26368 73.181 6.96076C73.0335 6.89695 72.8643 6.82347 72.8053 6.79769C72.5939 6.7052 71.8917 6.51055 71.3361 6.39067C70.7492 6.2637 69.3287 6.15058 68.777 6.187ZM133.928 6.23759C130.75 6.7284 128.29 8.92529 127.425 12.0461C127.358 12.2891 127.29 12.5079 127.275 12.5324C127.199 12.6562 127.025 14.011 126.995 14.7193C126.846 18.1827 128.068 21.0692 130.431 22.8398C132.203 24.1681 134.69 24.6009 137.043 23.9915C138.05 23.7311 139.023 23.1185 140.013 22.1237C140.376 21.7586 140.684 21.4601 140.698 21.4601C140.711 21.4601 140.723 21.9677 140.723 22.5881V23.716H142.871H145.02L145.006 15.2162L144.993 6.71648H142.871H140.75L140.735 7.66974C140.727 8.19407 140.705 8.623 140.687 8.623C140.669 8.623 140.47 8.44801 140.245 8.23371C138.552 6.62077 136.219 5.88374 133.928 6.23759ZM79.1443 6.74129C79.1101 6.7964 79.1884 7.04841 79.5455 8.03229C79.6689 8.37196 79.8014 8.74675 79.84 8.8647C79.8787 8.98297 80.0118 9.35745 80.1359 9.69744C80.2599 10.0371 80.3811 10.3755 80.405 10.4493C80.4288 10.5231 80.5619 10.8979 80.7001 11.2817C80.8387 11.6658 80.9718 12.0406 80.9963 12.1144C81.0211 12.1882 81.1539 12.5627 81.2918 12.9468C81.4298 13.331 81.6357 13.9111 81.7491 14.2359C81.8626 14.5607 82.0562 15.1047 82.1797 15.4444C82.3034 15.7841 82.4359 16.1589 82.4745 16.2768C82.5132 16.3951 82.646 16.7696 82.7701 17.1095C82.8938 17.4492 83.0266 17.8237 83.0653 17.942C83.1039 18.0602 83.237 18.4347 83.3608 18.7744C83.4845 19.114 83.6176 19.4888 83.6563 19.6071C83.6946 19.7251 83.8271 20.0999 83.9499 20.4395C84.0727 20.7792 84.2409 21.2507 84.3234 21.4869C84.4062 21.7231 84.5258 22.0615 84.5893 22.2387C84.6527 22.416 84.7949 22.8149 84.9051 23.125L85.1055 23.6889L86.1258 23.7028C87.3614 23.7195 87.2995 23.7028 87.1938 23.9957C87.148 24.1224 86.9821 24.5887 86.8248 25.0318C86.6679 25.4749 86.4374 26.1153 86.3131 26.4553C86.1887 26.7949 86.0552 27.1694 86.0166 27.2877C85.9782 27.4059 85.8458 27.7804 85.7227 28.1201C85.3888 29.0418 85.132 29.7772 85.132 29.8097C85.132 29.8777 89.3243 29.84 89.344 29.7717C89.3633 29.7047 89.4529 29.4526 89.9588 28.0395C90.1068 27.626 90.3398 26.9735 90.4764 26.5893C90.6134 26.2055 90.7948 25.6979 90.8799 25.4614C91.1541 24.7015 91.7419 23.0583 91.9082 22.5881C92.1009 22.0425 92.2817 21.5365 92.4606 21.0438C92.5328 20.8443 92.7036 20.367 92.8399 19.9829C92.9762 19.5991 93.1448 19.1276 93.2144 18.9355C93.2837 18.7434 93.4174 18.369 93.5109 18.1031C93.6046 17.8372 93.7745 17.3657 93.8882 17.0557C94.002 16.7457 94.1792 16.2501 94.282 15.9545C94.3848 15.6594 94.5695 15.1395 94.6929 14.7999C94.816 14.4602 94.9417 14.1096 94.972 14.021C95.0684 13.7403 95.7152 11.9411 95.8518 11.5737C95.924 11.3797 96.0049 11.1502 96.031 11.0635C96.0574 10.9768 96.1799 10.6278 96.3036 10.2881C96.6291 9.39354 97.0039 8.34875 97.0551 8.19342C97.0793 8.11962 97.1982 7.78415 97.3194 7.44802C97.4402 7.11158 97.5392 6.80349 97.5392 6.76321C97.5392 6.682 93.5444 6.65074 93.4251 6.73066C93.3926 6.75225 93.2682 7.03584 93.148 7.36101C92.7332 8.48475 92.4964 9.13637 92.2492 9.8315C91.9949 10.5473 91.9134 10.7738 91.5231 11.8457C91.0745 13.079 90.8857 13.6007 90.7162 14.0748C90.5031 14.6716 90.1938 15.5288 89.9169 16.2903C89.8016 16.6078 89.6295 17.0854 89.5347 17.3512C89.4397 17.6171 89.266 18.1005 89.1487 18.4254C89.0314 18.7502 88.8967 19.125 88.849 19.2578C88.7429 19.5552 88.711 19.5784 88.4081 19.5784C88.0639 19.5784 88.0481 19.5591 87.7903 18.8221C87.6624 18.4563 87.4213 17.7702 87.2544 17.2974C86.9631 16.4718 86.7745 15.9339 86.3172 14.6252C86.2009 14.2929 85.9943 13.7067 85.8577 13.3229C85.7211 12.9388 85.5606 12.4796 85.5013 12.3023C85.4416 12.1251 85.3727 11.9317 85.3485 11.8727C85.3243 11.8134 85.2676 11.6565 85.2231 11.5234C85.1784 11.3906 85.0639 11.0642 84.9692 10.7983C84.8745 10.5324 84.741 10.158 84.6724 9.96588C84.6041 9.77381 84.3756 9.12123 84.1652 8.51569C83.9544 7.91015 83.7211 7.25144 83.6466 7.05196L83.5113 6.68941H81.3437C80.0124 6.68941 79.1639 6.70939 79.1443 6.74129ZM114.469 6.75322C114.419 6.80381 114.404 8.72323 114.404 15.2672V23.716H116.659H118.912L118.929 18.4118C118.948 12.5376 118.93 12.8395 119.301 12.0993C119.846 11.0097 120.243 10.8789 123.001 10.8789C124.848 10.8789 125.085 10.8695 125.114 10.7941C125.195 10.5833 125.149 6.81187 125.065 6.74194C124.925 6.62625 122.22 6.70778 121.736 6.84249C120.436 7.20471 119.469 7.99781 118.959 9.11994C118.774 9.52793 118.757 9.44768 118.742 8.04583L118.728 6.71648L116.631 6.7023C115.045 6.69166 114.519 6.70423 114.469 6.75322ZM70.9764 10.0448C72.1482 10.4834 73.0679 11.6343 73.3038 12.9575C73.3441 13.1837 73.339 13.2424 73.2764 13.2662C73.0921 13.3371 64.7754 13.2975 64.7754 13.2259C64.7754 13.0864 65.0129 12.4547 65.2137 12.0606C65.8021 10.9046 66.7741 10.1206 67.8369 9.94494C68.2807 9.87178 70.7212 9.94945 70.9764 10.0448ZM137.644 10.0748C139.069 10.2624 140.206 11.4673 140.504 13.1044C140.58 13.5253 140.58 16.9855 140.504 17.4083C140.243 18.8543 139.306 19.9332 137.984 20.3122C137.598 20.4228 135.502 20.4775 134.877 20.3934C132.217 20.0354 130.662 16.2942 131.782 12.9468C132.268 11.4947 133.413 10.3358 134.594 10.1003C135.031 10.0133 137.048 9.9965 137.644 10.0748Z" fill="white"/>
<path fill-rule="evenodd" clip-rule="evenodd" d="M0.0772106 17.6625C0.144292 17.7296 0.181279 17.73 5.89943 17.7292C11.231 17.7284 11.6588 17.7325 11.7163 17.7845C11.7762 17.8388 11.7784 18.0505 11.7784 23.8985C11.7784 30.6829 11.7574 30.1492 12.0191 30.0055C12.0994 29.9614 12.1878 29.9073 12.2155 29.8853C12.2433 29.8633 12.3719 29.7877 12.5013 29.7173C12.6308 29.647 12.8804 29.5044 13.0561 29.4006C13.5209 29.1259 13.5452 29.1118 13.9136 28.9068C14.0985 28.8038 14.333 28.6682 14.4348 28.6054C14.5365 28.5426 14.6823 28.4618 14.7589 28.4259C14.8355 28.3899 14.909 28.3428 14.9223 28.3213C14.9356 28.2998 15.0092 28.2527 15.0857 28.2167C15.1623 28.1808 15.3082 28.099 15.4099 28.0347C15.5116 27.9706 15.6516 27.8931 15.7209 27.8624C15.7903 27.8318 15.847 27.7931 15.847 27.7763C15.847 27.7596 15.9189 27.7147 16.0067 27.6765C16.0946 27.6384 16.1967 27.5806 16.2337 27.5483C16.3051 27.4857 16.4089 27.4268 16.654 27.3096C16.7372 27.2699 16.8356 27.2113 16.8726 27.1797C16.9346 27.1267 17.5359 26.7783 17.73 26.6828C17.7762 26.6602 17.9124 26.5819 18.0326 26.509C18.261 26.3706 18.8154 26.0518 19.075 25.9097C19.1582 25.8643 19.249 25.8089 19.2767 25.7867C19.3045 25.7645 19.3801 25.7199 19.4449 25.6877C19.5096 25.6554 19.6458 25.577 19.7475 25.5134C19.8492 25.4497 19.9929 25.3667 20.0669 25.3287C20.1409 25.2907 20.2846 25.2074 20.3863 25.1435C20.4881 25.0796 20.6241 25.0026 20.6887 24.9724C20.7533 24.9423 20.849 24.8814 20.9014 24.8373C20.9539 24.7931 21.0162 24.7571 21.0401 24.7571C21.0639 24.7571 21.1249 24.7245 21.1756 24.6845C21.2711 24.6095 21.4432 24.5099 21.6879 24.3884C21.7657 24.3497 21.838 24.3041 21.8485 24.2872C21.8653 24.2601 22.2356 24.045 22.6416 23.8266C22.7162 23.7864 22.7954 23.7387 22.8175 23.7206C22.8397 23.7024 22.9259 23.6504 23.0091 23.605C23.0923 23.5597 23.3268 23.4272 23.5303 23.3108C23.7337 23.1944 23.9455 23.0746 24.001 23.0446C24.1747 22.9511 24.7702 22.5992 24.8623 22.5358C24.9107 22.5025 25.0014 22.4512 25.0641 22.4218C25.1267 22.3925 25.2611 22.316 25.3628 22.2519C25.4645 22.1878 25.6115 22.1044 25.6892 22.0667C25.7671 22.0288 25.8394 21.984 25.8499 21.9671C25.8603 21.9502 26.0119 21.8589 26.1866 21.7645C26.3614 21.67 26.513 21.5788 26.5234 21.5619C26.5339 21.5449 26.6062 21.4996 26.684 21.4611C26.7618 21.4227 26.9012 21.3472 26.9936 21.2933C27.0861 21.2394 27.2298 21.1563 27.3131 21.1085C27.3963 21.0608 27.5476 20.9717 27.6493 20.9105C27.887 20.7676 28.4582 20.4363 28.6749 20.3157C29.0223 20.1224 29.3622 19.9272 29.6836 19.7367C29.7946 19.6709 30.0215 19.5393 30.188 19.4443C30.3544 19.3491 30.5738 19.2197 30.6755 19.1567C30.7773 19.0936 30.9136 19.0153 30.9786 18.9826C31.0436 18.9499 31.1443 18.8891 31.2024 18.8475C31.2604 18.8059 31.3234 18.7719 31.3422 18.7719C31.3611 18.7719 31.4194 18.7358 31.4719 18.6917C31.5242 18.6475 31.62 18.5867 31.6845 18.5565C31.7492 18.5263 31.8852 18.4492 31.9869 18.3852C32.0886 18.3211 32.2239 18.2444 32.2874 18.2146C32.351 18.1848 32.4508 18.124 32.5091 18.0794C32.5675 18.035 32.6267 17.9985 32.6406 17.9985C32.6544 17.9985 32.8017 17.9153 32.9679 17.8135C33.1341 17.7118 33.2768 17.6286 33.2852 17.6286C33.3338 17.6286 33.7792 17.3362 33.8056 17.2869C33.8396 17.2234 33.8516 3.99534 33.8178 3.94053C33.782 3.88261 33.6764 3.9096 33.4788 4.02728C33.3703 4.09193 33.2238 4.17893 33.1533 4.22063C33.0827 4.26224 32.9724 4.33041 32.908 4.37202C32.8436 4.41363 32.7785 4.44768 32.7633 4.44768C32.7482 4.44768 32.6982 4.47718 32.6523 4.51324C32.6064 4.54931 32.4872 4.62261 32.3872 4.67607C32.2873 4.72954 32.0542 4.86118 31.8692 4.96869C31.6843 5.07621 31.4693 5.19894 31.3914 5.24139C31.3137 5.28384 31.2101 5.34462 31.1614 5.37656C31.0162 5.47172 30.869 5.55486 30.719 5.62631C30.6412 5.66338 30.5682 5.70869 30.5568 5.72702C30.5456 5.74534 30.4601 5.80167 30.367 5.85219C30.274 5.90262 30.1328 5.98181 30.0535 6.02805C29.9741 6.07428 29.8357 6.15447 29.7459 6.20617C29.6562 6.25795 29.4995 6.3521 29.3978 6.41549C29.2961 6.47878 29.1523 6.56192 29.0784 6.60025C28.8606 6.7129 28.6352 6.84866 28.5687 6.90708C28.5347 6.93709 28.4689 6.97265 28.4227 6.98627C28.3764 6.9998 28.3084 7.03687 28.2714 7.06873C28.192 7.13691 27.9166 7.29898 27.7502 7.37556C27.6855 7.40532 27.6117 7.45474 27.5863 7.48543C27.561 7.51603 27.5216 7.54116 27.4989 7.54116C27.4762 7.54116 27.3186 7.62497 27.1487 7.72744C26.9787 7.82983 26.7987 7.92919 26.7486 7.94819C26.6984 7.96719 26.6271 8.00998 26.5901 8.04318C26.5531 8.07638 26.3943 8.17482 26.2371 8.26191C26.0799 8.349 25.8529 8.47946 25.7327 8.55192C25.6125 8.62439 25.4668 8.705 25.409 8.73106C25.3511 8.75712 25.2937 8.79469 25.2815 8.81453C25.2692 8.83437 25.1955 8.8817 25.1176 8.9197C25.0399 8.95769 24.8778 9.04823 24.7576 9.12094C24.6374 9.19366 24.5012 9.27208 24.455 9.29528C24.4087 9.31849 24.3281 9.37212 24.2758 9.4144C24.2235 9.45677 24.1604 9.4914 24.1355 9.4914C24.1106 9.4914 24.0473 9.52747 23.9949 9.5716C23.9425 9.61573 23.8468 9.67617 23.7822 9.70584C23.6654 9.75956 23.4645 9.87691 23.2429 10.0209C23.1791 10.0624 23.1097 10.0965 23.0889 10.0966C23.068 10.0966 23.0308 10.1209 23.0061 10.1506C22.9815 10.1803 22.8851 10.2408 22.7919 10.285C22.6986 10.3292 22.5392 10.4185 22.4375 10.4834C22.3357 10.5483 22.2002 10.6246 22.1361 10.653C22.072 10.6813 21.9955 10.7263 21.966 10.753C21.9365 10.7797 21.8508 10.8359 21.7756 10.8778C21.4253 11.0731 20.9887 11.3235 20.7898 11.443C20.6696 11.5152 20.5108 11.6046 20.4368 11.6416C20.3628 11.6786 20.1964 11.7767 20.0669 11.8597C19.9375 11.9426 19.8191 12.0111 19.804 12.0118C19.7888 12.0126 19.7104 12.0587 19.6298 12.1141C19.5492 12.1696 19.4731 12.215 19.4608 12.215C19.4485 12.215 19.3909 12.2491 19.3328 12.2907C19.2747 12.3323 19.174 12.3931 19.109 12.4258C19.044 12.4585 18.9077 12.5376 18.806 12.6017C18.7043 12.6657 18.5729 12.7408 18.514 12.7686C18.4552 12.7965 18.3965 12.8363 18.3837 12.8572C18.3707 12.8781 18.2903 12.9255 18.2048 12.9627C18.1194 12.9999 18.0247 13.0518 17.9946 13.0782C17.9387 13.1269 17.8056 13.2019 17.5198 13.3454C17.432 13.3895 17.3601 13.4387 17.3601 13.4548C17.3601 13.4707 17.2882 13.5157 17.2004 13.5547C17.1126 13.5938 16.9348 13.6935 16.8053 13.7764C16.6758 13.8592 16.5537 13.9277 16.5339 13.9284C16.514 13.9292 16.4384 13.9749 16.3657 14.0298C16.2931 14.0848 16.2209 14.1302 16.2053 14.1307C16.1896 14.1312 16.0409 14.2148 15.8747 14.3166C15.7085 14.4183 15.5622 14.5015 15.5495 14.5015C15.5367 14.5015 15.4661 14.5425 15.3925 14.5926C15.3188 14.6427 15.198 14.7162 15.1241 14.756C14.7943 14.9332 14.7406 14.9649 14.6531 15.0337C14.602 15.0739 14.5416 15.1067 14.5188 15.1067C14.496 15.1067 14.4348 15.1408 14.3827 15.1824C14.2891 15.2572 14.1249 15.3515 13.897 15.4613C13.8325 15.4925 13.7367 15.554 13.6843 15.5982C13.6319 15.6423 13.5695 15.6784 13.5457 15.6784C13.5219 15.6784 13.4459 15.7233 13.3767 15.7784C13.2428 15.8847 13.0385 15.9432 12.9855 15.8902C12.9656 15.8703 12.9538 13.4591 12.9542 9.47072C12.9546 3.7598 12.9491 3.07528 12.9026 3.00887L12.8506 2.93456H6.47047C1.553 2.93456 0.0811616 2.94381 0.0500587 2.97491C-0.0324903 3.05746 -0.00559056 17.5797 0.0772106 17.6625Z" fill="white"/>
</svg>
