<svg width="100" height="100" viewBox="0 0 100 100" fill="none" xmlns="http://www.w3.org/2000/svg">
<path fill-rule="evenodd" clip-rule="evenodd" d="M3.21335 52.6964C3.39871 52.8817 3.50091 52.8829 19.3014 52.8808C34.0336 52.8785 35.2156 52.8898 35.3745 53.0336C35.5401 53.1837 35.5462 53.7686 35.5462 69.9277C35.5462 88.6744 35.4881 87.1999 36.2112 86.8027C36.4333 86.6807 36.6774 86.5314 36.754 86.4705C36.8307 86.4096 37.1861 86.2008 37.5438 86.0064C37.9015 85.812 38.5914 85.418 39.0769 85.1312C40.3611 84.3721 40.4283 84.3333 41.4461 83.7667C41.9571 83.4822 42.6052 83.1075 42.8863 82.934C43.1673 82.7603 43.5703 82.537 43.7819 82.4379C43.9936 82.3384 44.1968 82.2084 44.2335 82.1489C44.2702 82.0894 44.4734 81.9594 44.6851 81.8599C44.8967 81.7608 45.2997 81.5345 45.5807 81.3571C45.8618 81.1798 46.2485 80.9657 46.4402 80.8809C46.6318 80.7963 46.7886 80.6892 46.7886 80.643C46.7886 80.5968 46.9872 80.4728 47.2299 80.3673C47.4727 80.2619 47.7549 80.1023 47.8571 80.0128C48.0543 79.84 48.3412 79.6772 49.0185 79.3534C49.2484 79.2435 49.5202 79.0819 49.6224 78.9945C49.7938 78.848 51.4553 77.8851 51.9917 77.6215C52.1194 77.5588 52.4957 77.3425 52.8279 77.1412C53.459 76.7586 54.9909 75.8778 55.7082 75.4852C55.9381 75.3596 56.189 75.2065 56.2657 75.1452C56.3423 75.0838 56.5514 74.9607 56.7302 74.8718C56.9091 74.7826 57.2854 74.5659 57.5664 74.39C57.8475 74.2142 58.2447 73.9847 58.4491 73.8797C58.6535 73.7747 59.0507 73.5445 59.3318 73.368C59.6128 73.1914 59.9887 72.9787 60.1673 72.8953C60.3457 72.8119 60.6102 72.6437 60.755 72.5218C60.8999 72.3998 61.0722 72.3002 61.1382 72.3002C61.204 72.3002 61.3726 72.2101 61.5127 72.0997C61.7765 71.8923 62.252 71.6173 62.9282 71.2814C63.1433 71.1745 63.343 71.0487 63.3721 71.0017C63.4183 70.9269 64.4417 70.3325 65.5634 69.7291C65.7697 69.618 65.9885 69.4863 66.0496 69.4362C66.1109 69.386 66.349 69.2422 66.5789 69.1168C66.8089 68.9916 67.457 68.6255 68.0191 68.3038C68.5812 67.9821 69.1665 67.6511 69.3198 67.5684C69.7997 67.3099 71.4452 66.3375 71.6998 66.1624C71.8334 66.0704 72.0842 65.9287 72.2573 65.8474C72.4303 65.7663 72.8017 65.555 73.0828 65.3777C73.3639 65.2007 73.7699 64.9703 73.9848 64.866C74.1998 64.7615 74.3996 64.6377 74.4286 64.5908C74.4574 64.5441 74.8762 64.2921 75.3592 64.031C75.8421 63.7699 76.2609 63.5179 76.2897 63.4712C76.3187 63.4243 76.5185 63.2991 76.7336 63.1927C76.9484 63.0865 77.3335 62.8779 77.5891 62.729C77.8446 62.5801 78.2418 62.3504 78.4717 62.2185C78.7017 62.0865 79.1198 61.8403 79.4009 61.6712C80.0575 61.2764 81.6359 60.3609 82.2347 60.0278C83.1947 59.4936 84.134 58.9542 85.0221 58.4279C85.3287 58.246 85.9558 57.8825 86.4157 57.6198C86.8757 57.3568 87.4819 56.9994 87.763 56.8252C88.044 56.6509 88.4208 56.4345 88.6003 56.3441C88.7799 56.2537 89.0582 56.0858 89.2187 55.9708C89.3792 55.8558 89.5532 55.7618 89.6052 55.7618C89.6572 55.7618 89.8184 55.6621 89.9634 55.5402C90.1081 55.4182 90.3727 55.2501 90.551 55.1667C90.7297 55.0833 91.1055 54.8703 91.3866 54.6933C91.6676 54.5163 92.0414 54.3042 92.217 54.222C92.3926 54.1398 92.6683 53.9716 92.8295 53.8485C92.9909 53.7256 93.1544 53.6248 93.1928 53.6248C93.2311 53.6248 93.6381 53.3948 94.0973 53.1138C94.5565 52.8327 94.9509 52.6027 94.9739 52.6027C95.1084 52.6027 96.339 51.7946 96.412 51.6585C96.5058 51.4831 96.539 14.9312 96.4456 14.7797C96.3467 14.6197 96.0549 14.6942 95.5091 15.0194C95.2092 15.198 94.8043 15.4385 94.6095 15.5537C94.4146 15.6687 94.1096 15.857 93.9317 15.972C93.7537 16.087 93.574 16.1811 93.5319 16.1811C93.4901 16.1811 93.3521 16.2626 93.2253 16.3622C93.0985 16.4619 92.7689 16.6644 92.4927 16.8122C92.2165 16.9599 91.5724 17.3237 91.0614 17.6207C90.5503 17.9178 89.9562 18.257 89.7411 18.3743C89.5262 18.4916 89.24 18.6595 89.1056 18.7478C88.7042 19.0107 88.2975 19.2404 87.8831 19.4379C87.668 19.5403 87.4663 19.6655 87.435 19.7161C87.4039 19.7668 87.1676 19.9224 86.9105 20.062C86.6534 20.2014 86.2634 20.4202 86.0441 20.548C85.8248 20.6757 85.4422 20.8973 85.1942 21.0402C84.9463 21.1832 84.5134 21.4434 84.2323 21.6185C83.9512 21.7934 83.554 22.0232 83.3496 22.1291C82.7478 22.4403 82.125 22.8155 81.9413 22.9769C81.8472 23.0598 81.6656 23.1581 81.5378 23.1957C81.4101 23.2331 81.2219 23.3356 81.1197 23.4236C80.9005 23.612 80.1395 24.0598 79.6796 24.2714C79.5007 24.3536 79.297 24.4902 79.2269 24.575C79.1567 24.6596 79.048 24.729 78.9853 24.729C78.9226 24.729 78.4871 24.9606 78.0176 25.2437C77.5479 25.5267 77.0504 25.8012 76.912 25.8537C76.7733 25.9062 76.5763 26.0244 76.4741 26.1162C76.3719 26.2079 75.9329 26.4799 75.4985 26.7206C75.0642 26.9612 74.437 27.3217 74.1048 27.522C73.7727 27.7222 73.3701 27.9449 73.2103 28.017C73.0505 28.089 72.8919 28.1928 72.858 28.2476C72.824 28.3024 72.6203 28.4332 72.4052 28.5382C72.1904 28.6432 71.7425 28.8933 71.4104 29.0943C71.0782 29.2952 70.7019 29.5119 70.5742 29.576C70.4464 29.6401 70.2237 29.7883 70.0792 29.9052C69.9347 30.0222 69.7603 30.1179 69.6915 30.1179C69.6227 30.1179 69.4478 30.2176 69.3029 30.3395C69.1582 30.4615 68.8936 30.6285 68.7152 30.7105C68.3924 30.8589 67.8374 31.1832 67.2251 31.5811C67.0486 31.6958 66.857 31.7899 66.7994 31.7901C66.7418 31.7901 66.6389 31.8575 66.5708 31.9395C66.5027 32.0215 66.2363 32.1887 65.9787 32.3109C65.7211 32.4331 65.2805 32.6798 64.9994 32.8591C64.7184 33.0384 64.3437 33.2493 64.1667 33.3276C63.9897 33.4059 63.7781 33.5301 63.6966 33.604C63.615 33.6779 63.3783 33.833 63.1704 33.9489C62.2025 34.4885 60.9961 35.1803 60.4467 35.5106C60.1146 35.7101 59.6755 35.9572 59.4711 36.0595C59.2667 36.1617 58.8068 36.4327 58.4491 36.662C58.0914 36.891 57.7643 37.0803 57.7225 37.0824C57.6807 37.0845 57.464 37.2118 57.2412 37.3651C57.0185 37.5184 56.8083 37.6438 56.7744 37.6438C56.7402 37.6438 56.5811 37.7379 56.4206 37.8529C56.2601 37.9679 55.9818 38.1358 55.8023 38.2262C55.6227 38.3165 55.2459 38.5353 54.9649 38.7123C54.6838 38.8891 54.3208 39.0968 54.1582 39.1736C53.9956 39.2505 53.8334 39.3606 53.7979 39.4182C53.7621 39.4761 53.5398 39.6071 53.3036 39.71C53.0676 39.8127 52.8061 39.9562 52.7229 40.0289C52.5684 40.1636 52.2005 40.3708 51.411 40.7673C51.1682 40.8893 50.9696 41.0252 50.9696 41.0695C50.9696 41.1137 50.771 41.2379 50.5283 41.3457C50.2856 41.4537 49.7943 41.7292 49.4366 41.9582C49.0789 42.187 48.7414 42.3763 48.6866 42.3784C48.6317 42.3805 48.4227 42.5066 48.222 42.6586C48.0213 42.8105 47.8218 42.9359 47.7786 42.9373C47.7354 42.9387 47.3245 43.1698 46.8652 43.4509C46.406 43.7319 46.0016 43.9619 45.9665 43.9619C45.9312 43.9619 45.7361 44.0752 45.5326 44.2137C45.3292 44.3521 44.9954 44.5551 44.791 44.665C43.8797 45.1546 43.7313 45.2422 43.4895 45.4325C43.3483 45.5435 43.1815 45.6343 43.1185 45.6343C43.0556 45.6343 42.8865 45.7284 42.7425 45.8434C42.4837 46.0501 42.0301 46.3107 41.4004 46.6141C41.222 46.7002 40.9574 46.8703 40.8127 46.9922C40.6677 47.1142 40.4954 47.2138 40.4297 47.2138C40.3639 47.2138 40.1537 47.3381 39.9625 47.4902C39.5925 47.7841 39.0281 47.9455 38.8817 47.7992C38.8267 47.7441 38.7942 41.0816 38.7951 30.0608C38.7963 14.2803 38.7812 12.3888 38.6527 12.2053L38.5089 12H20.8793C7.29128 12 3.22427 12.0256 3.13832 12.1115C2.91022 12.3396 2.98455 52.4676 3.21335 52.6964Z" fill="#1155D4"/>
</svg>
